<?xml version="1.0" standalone="no"?>
<!DOCTYPE svg PUBLIC "-//W3C//DTD SVG 20010904//EN"
 "http://www.w3.org/TR/2001/REC-SVG-20010904/DTD/svg10.dtd">
<svg version="1.0" xmlns="http://www.w3.org/2000/svg"
 width="150.000000pt" height="150.000000pt" viewBox="0 0 150.000000 150.000000"
 preserveAspectRatio="xMidYMid meet">
<metadata>
Created by potrace 1.15, written by Peter Selinger 2001-2017
</metadata>
<g transform="translate(0.000000,150.000000) scale(0.100000,-0.100000)"
fill="#000000" stroke="none">
<path d="M1325 1150 c-9 -29 -48 -43 -57 -21 -5 12 -7 11 -7 -6 -1 -17 -7 -23
-23 -23 -12 0 -18 -3 -15 -7 4 -3 25 0 47 7 29 10 46 10 62 3 23 -11 23 -11
-5 -18 -15 -4 -33 -17 -39 -29 -11 -21 -11 -21 10 -2 12 10 33 20 46 21 27 3
52 -18 41 -35 -3 -5 -2 -10 3 -10 9 0 52 -89 52 -106 0 -4 -9 1 -20 11 -11 10
-20 14 -20 8 0 -5 9 -18 20 -28 11 -10 20 -23 20 -29 0 -6 -9 0 -20 14 -17 21
-21 23 -30 10 -7 -11 -8 -3 -5 25 3 26 -1 17 -12 -25 -12 -50 -17 -60 -23 -45
-4 12 -15 26 -23 33 -13 11 -15 9 -13 -22 1 -19 5 -38 9 -42 11 -11 8 -26 -3
-19 -5 3 -10 1 -10 -4 0 -6 5 -11 10 -11 6 0 10 -5 10 -11 0 -5 -4 -7 -10 -4
-5 3 -10 1 -10 -4 0 -6 5 -11 10 -11 6 0 10 -8 10 -17 0 -15 -2 -16 -10 -3 -6
9 -10 10 -10 3 0 -6 5 -15 10 -18 6 -3 10 -13 10 -21 0 -8 -4 -13 -9 -9 -5 3
-13 0 -17 -6 -4 -7 -3 -9 4 -5 6 3 13 2 17 -4 3 -6 -1 -13 -9 -16 -9 -3 -16
-14 -16 -23 0 -14 2 -14 11 -1 9 12 10 11 6 -7 -5 -23 18 -40 29 -21 4 7 3 8
-5 4 -8 -6 -11 2 -8 29 3 19 8 39 12 43 4 4 6 -3 3 -14 -3 -12 -1 -28 4 -35 7
-12 9 -11 7 1 -3 28 1 40 12 40 8 0 8 -4 0 -14 -8 -10 -6 -19 10 -40 24 -31
54 -34 56 -6 1 11 9 27 17 36 31 30 18 185 -27 331 -20 64 -27 75 -64 99 -37
23 -41 29 -32 46 6 11 8 22 6 25 -3 2 -8 -5 -12 -17z"/>
<path d="M559 1148 c-1 -7 -2 -20 -3 -28 -1 -12 -22 -15 -128 -15 -69 0 -124
-3 -121 -7 2 -5 -2 -8 -10 -8 -8 0 -17 -8 -20 -19 -6 -23 9 -51 28 -51 7 0 12
-8 10 -17 -2 -10 -6 -107 -9 -215 l-6 -198 40 0 40 0 0 219 0 218 45 -8 c59
-11 86 -26 79 -43 -3 -8 -1 -24 6 -35 10 -19 8 -21 -17 -21 -27 -1 -27 -1 -9
-15 17 -13 18 -15 3 -15 -9 0 -17 -7 -17 -15 0 -8 -6 -15 -12 -15 -19 -1 34
-29 55 -30 9 0 17 -5 17 -11 0 -5 4 -8 9 -4 5 3 12 -3 14 -12 3 -10 5 4 6 30
1 30 -6 62 -19 88 l-21 40 31 37 c16 20 30 41 30 47 0 5 7 22 14 37 10 19 11
27 3 25 -7 -1 -11 6 -11 16 1 9 -2 17 -8 17 -5 0 -6 5 -3 10 3 6 1 10 -4 10
-6 0 -12 -6 -12 -12z"/>
<path d="M993 1129 c-6 -6 -9 -18 -6 -25 3 -8 1 -14 -5 -14 -5 0 -12 -9 -15
-20 -3 -11 -1 -20 3 -20 5 0 16 -15 25 -32 15 -31 15 -34 -4 -49 -11 -9 -18
-19 -15 -22 3 -3 -12 -21 -33 -42 -34 -33 -42 -36 -76 -31 -36 6 -38 5 -35
-16 2 -17 11 -24 31 -26 15 -2 27 -9 27 -17 0 -20 13 -22 160 -18 148 4 174 8
150 23 -12 8 -13 10 -1 10 9 0 7 6 -7 19 -12 10 -19 21 -15 25 3 3 1 6 -6 6
-7 0 -9 5 -6 10 3 6 -1 10 -9 10 -9 0 -16 5 -16 10 0 6 5 10 10 10 6 0 10 4
10 10 0 5 -6 7 -13 5 -6 -3 -18 4 -25 16 -11 17 -11 20 0 13 10 -6 11 -5 1 8
-7 8 -11 17 -9 19 2 2 -2 10 -10 17 -14 13 -19 5 -15 -20 2 -12 -37 -9 -45 3
-3 6 0 15 7 20 11 7 10 9 -3 9 -21 0 -23 11 -5 29 10 10 9 11 -5 6 -13 -5 -19
0 -24 19 -3 13 -3 30 1 35 3 6 1 11 -5 11 -6 0 -8 5 -5 10 8 13 2 13 -12 -1z"/>
<path d="M530 760 c-15 -15 -20 -33 -20 -77 0 -32 -5 -65 -10 -73 -7 -10 -10
12 -10 73 l0 87 -41 0 c-35 0 -40 -2 -29 -14 7 -10 10 -42 8 -91 l-3 -75 73 0
c64 0 72 2 72 19 0 11 9 22 19 26 11 3 24 18 30 33 6 18 10 21 10 9 2 -32 31
-76 61 -92 27 -14 30 -13 59 11 39 32 41 64 6 64 -15 0 -25 -5 -24 -12 4 -33
-1 -39 -21 -28 -32 17 -27 130 6 130 7 0 18 -9 24 -20 13 -24 43 -27 38 -4 -2
9 -15 26 -29 37 -36 26 -78 13 -101 -33 l-17 -33 -7 27 c-6 27 -38 56 -61 56
-7 0 -22 -9 -33 -20z"/>
<path d="M790 761 c0 -6 4 -13 10 -16 5 -3 8 -39 7 -80 l-2 -75 68 0 c60 0 68
2 64 18 -3 9 -8 34 -12 55 -5 33 -8 36 -25 27 -28 -15 -30 -13 -30 35 l0 45
-40 0 c-22 0 -40 -4 -40 -9z"/>
<path d="M940 760 c0 -5 5 -10 11 -10 6 0 9 -29 8 -82 l-2 -83 26 -3 c22 -3
29 2 38 25 l12 28 10 -27 c8 -20 18 -28 35 -28 23 0 24 3 17 37 -9 48 -14 56
-31 49 -11 -4 -14 5 -14 39 0 25 5 45 10 45 6 0 10 -11 10 -24 0 -35 18 -42
26 -11 12 49 -47 78 -66 33 l-9 -23 0 23 c-1 19 -6 22 -41 22 -22 0 -40 -4
-40 -10z"/>
<path d="M1110 761 c0 -6 5 -13 11 -16 6 -4 9 -38 8 -83 l-2 -77 56 -3 c54 -3
57 -2 72 28 20 40 13 49 -16 21 -13 -12 -29 -21 -36 -21 -18 0 -17 56 2 64 8
3 15 12 15 20 0 10 -6 13 -15 10 -11 -5 -15 1 -15 22 l1 29 35 -38 c20 -21 37
-37 39 -35 2 2 -1 23 -7 46 l-10 42 -69 0 c-38 0 -69 -4 -69 -9z"/>
<path d="M505 533 c-3 -21 -8 -48 -10 -59 -4 -16 2 -24 23 -32 65 -26 124 -35
232 -36 94 -1 128 3 189 22 l73 23 -7 47 c-9 62 -19 72 -71 72 -38 0 -46 -4
-54 -24 -5 -13 -13 -25 -19 -27 -6 -2 -13 -20 -15 -39 -2 -19 -4 -39 -5 -44 0
-5 -8 -2 -17 5 -11 9 -14 23 -11 46 4 23 2 33 -7 33 -10 0 -12 -12 -8 -45 5
-45 4 -45 -26 -45 -33 0 -42 14 -42 61 0 42 -18 36 -22 -8 -3 -33 -7 -38 -30
-41 -25 -3 -27 -1 -30 45 -3 44 -4 46 -11 18 -20 -74 -50 -84 -55 -17 -2 31 0
42 11 42 8 0 17 6 20 14 6 16 -20 26 -70 26 -29 0 -33 -3 -38 -37z"/>
<path d="M230 515 c0 -3 9 -18 19 -33 18 -25 25 -49 22 -80 -2 -27 -58 16 -75
58 -9 23 -21 38 -26 35 -6 -3 1 -22 15 -43 26 -41 40 -86 31 -101 -13 -20 -66
23 -82 67 -9 23 -23 42 -31 42 -28 0 62 -138 193 -298 38 -47 206 -126 314
-148 163 -33 377 3 512 86 70 43 149 110 143 120 -3 5 17 39 45 75 66 87 106
165 86 165 -9 0 -20 -17 -28 -41 -12 -40 -60 -85 -79 -73 -14 8 2 67 27 101
27 35 29 43 13 43 -5 0 -17 -16 -25 -35 -8 -19 -27 -41 -42 -49 -27 -14 -28
-14 -30 15 -1 17 7 41 20 59 29 40 34 31 9 -19 -31 -59 -26 -61 14 -5 l35 49
-27 9 c-18 6 -28 5 -31 -2 -9 -27 -83 -133 -97 -138 -8 -4 -22 -1 -29 5 -8 7
-20 11 -28 10 -7 -1 -29 -1 -48 1 -29 1 -32 3 -15 10 19 8 19 9 -2 9 -13 1
-23 -3 -23 -9 0 -5 -9 -10 -20 -10 -13 0 -20 -6 -19 -17 0 -11 3 -13 6 -5 11
27 21 10 11 -20 -15 -46 -19 -48 -58 -31 -32 14 -33 16 -15 24 15 7 12 8 -14
4 -18 -3 -37 -5 -41 -5 -4 0 -11 -7 -14 -16 -5 -14 -4 -15 9 -4 24 20 18 -5
-8 -36 l-23 -26 -30 27 c-20 19 -23 25 -10 21 16 -6 17 -4 6 9 -9 11 -16 13
-23 6 -7 -7 -15 -7 -23 0 -7 6 -19 7 -25 3 -9 -5 -8 -9 5 -14 14 -5 12 -9 -15
-29 l-31 -23 -23 28 c-13 16 -20 33 -17 39 3 5 7 4 10 -3 2 -7 8 -12 14 -12 6
0 6 6 -2 15 -7 8 -16 12 -22 9 -5 -3 -16 0 -24 7 -12 9 -17 10 -27 0 -9 -10
-8 -11 6 -6 9 4 17 3 17 -3 0 -5 -11 -13 -24 -16 -13 -3 -31 -8 -38 -11 -10
-4 -18 6 -26 32 -12 39 -7 58 8 33 8 -12 10 -12 10 -2 0 8 -9 16 -20 19 -11 3
-20 9 -20 14 0 5 -10 9 -22 8 -22 0 -22 -1 -3 -9 15 -7 6 -9 -33 -8 -29 1 -57
-3 -64 -10 -18 -18 -28 -15 -50 14 -16 20 -23 23 -30 12 -8 -10 -9 -9 -4 4 5
18 -40 108 -55 108 -5 0 -9 -2 -9 -5z m289 -214 c68 -35 142 -51 238 -51 68 0
93 3 93 13 1 6 9 22 20 35 18 22 20 22 59 6 39 -15 41 -15 85 11 56 33 65 45
32 45 -15 0 -30 -8 -36 -21 -16 -28 -23 -18 -11 15 8 20 17 26 40 26 16 0 31
-6 34 -12 3 -10 8 -10 21 1 15 13 20 12 42 -10 13 -14 26 -35 29 -47 6 -31
-28 -24 -56 11 -17 22 -24 25 -35 16 -18 -15 -18 -48 1 -55 8 -4 15 -15 15
-25 0 -10 5 -19 11 -19 6 0 9 7 6 15 -7 17 9 30 18 15 5 -8 11 -7 21 1 11 9
14 7 14 -9 0 -26 -68 -75 -159 -113 -36 -16 -60 -29 -53 -29 19 0 134 54 177
83 l38 26 17 -22 c18 -21 17 -22 -8 -40 -44 -30 -143 -79 -200 -98 -115 -40
-342 -48 -342 -13 0 7 -5 16 -12 20 -8 5 -9 2 -5 -9 8 -22 -13 -22 -73 -2 -79
27 -120 48 -113 58 3 6 1 7 -6 3 -12 -8 -94 35 -106 55 -4 6 1 19 10 29 16 18
18 17 60 -11 47 -32 148 -79 168 -79 7 0 -19 14 -58 30 -68 29 -186 109 -194
131 -2 6 18 33 44 59 l47 48 46 -35 c25 -19 61 -42 81 -52z"/>
</g>
</svg>
